<svg width="256" height="256" viewBox="0 0 256 256" fill="none" xmlns="http://www.w3.org/2000/svg">
<rect width="256" height="256" fill="url(#paint0_linear_281_5164)"/>
<path d="M117.078 130.058C117.078 112.439 112.779 95.0171 104.634 79.7167C103.191 76.9734 100.816 75.0502 97.9876 74.23C95.3008 73.4664 92.4443 73.8624 90.0121 75.2765C84.6952 78.3875 82.8003 85.5427 85.7981 91.1708C92.0767 102.993 95.3857 116.426 95.3857 130.058C95.3857 143.69 92.105 156.954 85.9113 168.719C82.9417 174.376 84.8366 181.503 90.1818 184.585C91.7656 185.519 93.5473 185.999 95.3291 185.999C99.232 185.999 102.852 183.737 104.775 180.089C112.807 164.873 117.049 147.565 117.049 130.058H117.078Z" fill="white"/>
<path d="M138.826 207.211C140.467 208.229 142.361 208.738 144.228 208.738C148.103 208.738 151.723 206.532 153.702 202.968C165.666 181.276 171.972 156.502 171.972 131.303C171.972 106.104 165.072 79.0662 151.977 56.6388C150.422 53.952 147.961 52.0854 145.048 51.4067C144.256 51.2087 143.436 51.1239 142.616 51.1239C140.636 51.1239 138.685 51.7178 136.988 52.8208C131.727 56.2146 130.087 63.5113 133.34 69.0828C144.256 87.777 149.997 109.299 149.997 131.331C149.997 153.362 144.737 172.99 134.754 191.062C131.643 196.718 133.453 203.958 138.798 207.211H138.826Z" fill="white"/>
<defs>
<linearGradient id="paint0_linear_281_5164" x1="-10.25" y1="128" x2="256" y2="128" gradientUnits="userSpaceOnUse">
<stop stop-color="#40C4FF"/>
<stop offset="1" stop-color="#448BFF"/>
</linearGradient>
</defs>
</svg>
